<svg xmlns="http://www.w3.org/2000/svg" width="192" height="43" viewBox="0 0 192 43"><g><g opacity="1"><g><g><text dominant-baseline="text-before-edge" style="line-height:168px;font-kerning:normal" fill="#fff" font-family="'Montserrat','Montserrat-Medium'" font-size="43" transform="translate(61 -2)"><tspan>BANK</tspan></text></g></g><g><g opacity="1"><path fill="#fff" d="M1.925 12.147c0-.323.262-.585.585-.585h37.087c.322 0 .584.262.584.585v1.769a.585.585 0 0 1-.584.584H2.51a.585.585 0 0 1-.585-.584zm19.128-10.91l17.406 9.148H3.648zm17.99 16.922c0 .258-.209.468-.467.468h-5.802a.467.467 0 0 1-.468-.468v-.437h6.741zm-5.182 16.654v-15.03h3.628v15.018zm5.183 2.061h-6.742v-.425c0-.258.21-.467.468-.467h5.818c.249.006.45.206.456.455zm1.137 4.98H1.925v-1.146c0-.333.27-.604.604-.604h37.048c.33 0 .598.263.604.592zM3.063 36.449c0-.258.21-.467.468-.467h5.805c.259 0 .468.209.468.467v.425H3.063zm5.183-16.654v15.006H4.622V19.784zm-5.183-2.073h6.741v.425c0 .259-.21.468-.468.468H3.52a.467.467 0 0 1-.456-.472zm6.741 20.31v.891H3.063v-.892zm14.152-2.062c.258 0 .468.21.468.467v.425h-6.741v-.425c0-.258.21-.467.467-.467zM22.87 19.784V34.8h-3.628V19.784zm-4.719-1.17a.467.467 0 0 1-.467-.467v-.425h6.74v.425c0 .259-.209.468-.467.468zm6.282 19.417v.892h-6.75v-.892zm14.62 0v.892h-6.75v-.892zM32.31 16.554v-.9h6.741v.892zm.39 3.222V34.81a1.637 1.637 0 0 0-1.559 1.628v2.486h-5.548v-2.486a1.637 1.637 0 0 0-1.559-1.628V19.772a1.636 1.636 0 0 0 1.559-1.629v-2.49h5.54v2.487c.002.872.687 1.59 1.56 1.632zm-15.01-3.222v-.9h6.742v.892zm.39 3.222V34.81a1.637 1.637 0 0 0-1.558 1.628v2.486h-5.55v-2.486a1.637 1.637 0 0 0-1.558-1.628V19.772a1.636 1.636 0 0 0 1.559-1.629v-2.49h5.54v2.487c.002.872.688 1.59 1.56 1.632zM3.071 16.554v-.9h6.74v.892zm-2.28-4.676a1.74 1.74 0 0 0-.027.257v1.769c.002.729.455 1.38 1.138 1.637v2.602a1.636 1.636 0 0 0 1.559 1.63v15.036a1.637 1.637 0 0 0-1.559 1.628v2.596a1.773 1.773 0 0 0-1.138 1.652v1.73c0 .322.262.584.585.584h39.417a.585.585 0 0 0 .584-.584v-1.73a1.773 1.773 0 0 0-1.138-1.652v-2.61a1.636 1.636 0 0 0-1.558-1.63v-15.02a1.636 1.636 0 0 0 1.558-1.63v-2.602a1.754 1.754 0 0 0 1.138-1.637v-1.757a1.703 1.703 0 0 0-.027-.258.582.582 0 0 0 .472-1.063L21.326.068a.585.585 0 0 0-.546 0L.312 10.814a.585.585 0 0 0 .48 1.064z"/></g></g></g></g></svg>