<svg xmlns="http://www.w3.org/2000/svg" width="32" height="35" viewBox="0 0 32 35"><g><g><g><path fill="#fff" d="M13.898 28.242s-3.435 4.282-4.503 5.394c-.35.362-.733.328-.727-.389 0-.47.026-5.851.026-5.851-6.72-1.927-6.325-9.171-6.252-12.96.073-3.792.767-6.897 2.812-8.988C9.974 1.023 23.287 2.012 26.68 5.2c4.147 3.677 2.67 14.062 2.68 14.417-.853 7.101-5.877 7.551-6.8 7.859-.396.131-4.06 1.074-8.661.766zm17.83-7.98c1.043-8.782-.502-14.326-3.288-16.833l.002-.002C23.945-.855 8.76-1.489 3.38 3.62.965 6.118.114 9.786.02 14.326c-.094 4.542-.204 13.05 7.723 15.357h.008l-.008 3.525s-.053 1.428.859 1.715c1.043.338 1.515-.325 4.76-4.2 5.426.47 9.593-.608 10.067-.766 1.095-.367 7.295-1.187 8.297-9.695z"/></g><g><path fill="#fff" d="M15.798 6.28c-.561 0-.561.874 0 .882 4.352.033 7.936 3.067 7.975 8.631 0 .587.86.58.853-.007h-.002c-.046-5.996-3.96-9.472-8.826-9.506z"/></g><g><path fill="#fff" d="M21.522 14.87c-.013.58.845.609.853.021.071-3.306-1.967-6.029-5.798-6.316-.56-.04-.62.84-.06.882 3.322.252 5.072 2.519 5.005 5.414z"/></g><g><path fill="#fff" d="M20.604 18.632c-.72-.417-1.452-.158-1.755.252l-.634.82c-.322.417-.924.361-.924.361-4.391-1.161-5.566-5.757-5.566-5.757s-.054-.622.348-.955l.793-.656c.396-.315.647-1.072.243-1.817-1.078-1.948-1.802-2.62-2.17-3.136-.388-.485-.971-.594-1.577-.266h-.013c-1.26.737-2.64 2.117-2.199 3.538.753 1.497 2.137 6.272 6.55 9.88 2.073 1.706 5.354 3.454 6.747 3.858l.013.02c1.373.458 2.707-.976 3.42-2.274v-.01c.316-.628.211-1.223-.25-1.612-.82-.798-2.055-1.68-3.026-2.246z"/></g><g><path fill="#fff" d="M17.177 11.827c1.4.082 2.08.813 2.152 2.315.027.588.88.547.853-.04-.093-1.962-1.116-3.054-2.958-3.156-.56-.034-.613.848-.047.881z"/></g></g></g></svg>