<svg xmlns="http://www.w3.org/2000/svg" width="34" height="33" viewBox="0 0 34 33"><g><g><g><path fill="#FF7127" d="M16.861 21.562c-.05.014-.076.053-.108.084l-1.046 1.01-.742.718a1.981 1.981 0 0 1-.497.347.809.809 0 0 1-.356.1.052.052 0 0 1-.052-.053v-.05c.002-.051.005-.102.01-.153.02-.275.041-.55.064-.826l.083-1.012.044-.59.057-.708.047-.624.005-.085a.144.144 0 0 1 .046-.105l.087-.08 4.447-4.063 2.847-2.602c.05-.046.1-.09.149-.139a.7.7 0 0 0 .085-.103.115.115 0 0 0-.066-.177.459.459 0 0 0-.267.004.824.824 0 0 0-.197.095l-2.231 1.409-6.528 4.108-.53.333c-.028.018-.056.039-.087.053a.13.13 0 0 1-.065.009c-.028-.003-.054-.014-.081-.022l-3.282-1.005c-.259-.078-.515-.164-.778-.23a.928.928 0 0 1-.386-.201.351.351 0 0 1-.088-.403.696.696 0 0 1 .216-.298c.078-.065.164-.12.256-.163.122-.058.246-.114.372-.162.667-.26 1.335-.516 2.002-.774l3.976-1.535 6.168-2.38a8408.6 8408.6 0 0 0 3.454-1.333c.116-.045.235-.08.357-.104a.668.668 0 0 1 .634.195c.136.136.216.3.25.489a1.5 1.5 0 0 1-.02.571c-.109.524-.223 1.048-.334 1.571l-.298 1.406-.287 1.34-.347 1.637-.398 1.869-.39 1.853c-.118.551-.237 1.102-.354 1.654l-.284 1.34a2.809 2.809 0 0 1-.101.374 1.362 1.362 0 0 1-.149.303.74.74 0 0 1-.17.186.583.583 0 0 1-.328.122.97.97 0 0 1-.319-.032c-.207-.06-.4-.147-.575-.277a2378.12 2378.12 0 0 0-3.762-2.793c-.05-.036-.093-.083-.153-.098zm.25 11.083c.208-.004.417-.004.626-.015.37-.018.743-.037 1.112-.085.218-.028.437-.049.655-.083a16.302 16.302 0 0 0 2.466-.58 17.794 17.794 0 0 0 2.093-.817 16.234 16.234 0 0 0 4.032-2.641c.206-.185.41-.372.6-.572a17.895 17.895 0 0 0 1.835-2.254 16.585 16.585 0 0 0 1.658-3.077c.246-.6.461-1.211.638-1.836a15.976 15.976 0 0 0 .582-3.36c.02-.297.024-.596.032-.895.007-.282-.011-.564-.018-.846-.007-.248-.03-.495-.052-.742a16.59 16.59 0 0 0-.915-4.03c-.15-.413-.311-.822-.508-1.216a27.768 27.768 0 0 0-.677-1.287 18.291 18.291 0 0 0-2.058-2.95 9.287 9.287 0 0 0-.931-.958c-.128-.11-.253-.224-.381-.335a16.844 16.844 0 0 0-2.633-1.865A17.013 17.013 0 0 0 21.892.736 15.964 15.964 0 0 0 18.06.028a13.875 13.875 0 0 0-1.217-.023c-.293.01-.587.01-.88.04-.201.022-.404.03-.606.053a16.31 16.31 0 0 0-3.775.897 18.01 18.01 0 0 0-1.436.596 16.83 16.83 0 0 0-1.898 1.036c-.746.472-1.448 1-2.103 1.59-.215.192-.426.388-.624.596A17.73 17.73 0 0 0 3.671 7.1c-.566.832-1.05 1.71-1.455 2.63-.3.683-.556 1.38-.767 2.095-.16.541-.292 1.089-.39 1.645-.04.233-.08.467-.112.701-.033.229-.062.458-.082.688-.026.31-.044.62-.058.93-.017.365-.016.732.001 1.098.017.378.036.755.083 1.13.027.224.05.449.085.672a16.485 16.485 0 0 0 .716 2.884c.202.587.435 1.161.697 1.724.315.675.672 1.327 1.074 1.955.459.72.972 1.398 1.542 2.033.2.223.403.442.619.648.331.315.674.617 1.027.907.735.602 1.512 1.14 2.338 1.611a17.057 17.057 0 0 0 4.963 1.87c.315.065.632.118.95.165.363.053.727.09 1.093.117.371.026.743.048 1.116.043z"/></g></g></g></svg>