<svg xmlns="http://www.w3.org/2000/svg" width="32" height="33" viewBox="0 0 32 33"><g><g><g><path fill="#fff" d="M30.307 16.26c.05 7.728-6.282 14.31-14.332 14.28-7.808-.022-14.258-6.34-14.244-14.302a14.244 14.244 0 0 1 14.34-14.28c8.114.029 14.28 6.647 14.236 14.302zm1.709.014C32.133 7.728 25.186.401 16.355.234 7.297.057.007 7.29 0 16.223-.015 25.302 7.385 32.27 16.012 32.27c8.904 0 16.106-7.333 16.004-15.997z"/></g><g><path fill="#fff" d="M6.399 20.022c3.192-5.815 6.355-11.564 9.547-17.385 3.243 5.814 6.457 11.577 9.7 17.385H6.4z"/></g><g><path fill="#fff" d="M5.04 22.9h22.367c-2.571 3.367-5.859 5.34-10.022 5.675-5.143.417-9.226-1.592-12.381-5.573.014-.03.022-.066.036-.102z"/></g><g><path fill="#fff" d="M5.559 21.782c.139-.248.234-.475.38-.665.065-.08.226-.131.343-.131.708-.015 1.41-.008 2.118-.008h17.305c.745 0 .774.022 1.052.804H5.559z"/></g></g></g></svg>