<svg xmlns="http://www.w3.org/2000/svg" width="34" height="34" viewBox="0 0 34 34"><g><g><g><g><path fill="#fff" d="M26.901 23.991c-.41 1.159-2.038 2.12-3.336 2.4-.889.19-2.05.34-5.956-1.28-4.997-2.07-8.215-7.147-8.465-7.477-.24-.33-2.02-2.688-2.02-5.128s1.24-3.629 1.739-4.139c.41-.418 1.088-.61 1.739-.61.21 0 .4.011.57.02.499.02.75.05 1.079.839.41.988 1.41 3.428 1.528 3.68.121.25.242.59.072.92-.16.34-.3.49-.55.78-.25.289-.489.51-.74.82-.23.27-.489.559-.2 1.058.29.49 1.288 2.12 2.76 3.429 1.897 1.69 3.436 2.23 3.986 2.459.41.17.9.13 1.2-.19.38-.41.85-1.09 1.328-1.76.34-.48.769-.54 1.22-.37.459.16 2.888 1.361 3.388 1.61.499.25.828.37.95.58.119.21.119 1.199-.292 2.36zM17.008-.019h-.009C7.624-.02 0 7.605 0 16.983c0 3.72 1.199 7.167 3.237 9.966l-2.119 6.317 6.536-2.09a16.856 16.856 0 0 0 9.354 2.81c9.375 0 16.999-7.628 16.999-17.003S26.383-.02 17.007-.02z"/></g></g></g></g></svg>