<svg xmlns="http://www.w3.org/2000/svg" width="203" height="29" viewBox="0 0 203 29"><g><g opacity="1"><path fill="#fff" d="M176.393 19.459l-7.041 9.58h-29.897c-7.619 0-9.696-3.693-7.388-6.81l2.078-2.77zM155.5 17.38h-19.854L148.112.413h19.739L155.5 17.266zm47.442 2.078v2.078h-24.587l1.5-2.078zm-28.627 7.503h28.627v2.078h-30.127zm2.77-3.81h25.857v2.078h-27.357zM.014 26.963h24.703l-1.5 2.078H.012zm28.743-5.425H.013v-2.078h30.243zm-1.27 1.731l-1.5 2.078H.012v-2.078zm81.957-3.81h18.584l-7.041 9.582H102.4zM142.11.414l-12.351 16.853H84.163L96.63.413h18.584l-7.157 9.696h8.311l7.157-9.696zM82.547 19.459h18.584l-7.04 9.58H75.505zm-6.118 0c-1.847 2.424-7.618 9.58-18.123 9.58H26.563l13.043-17.66h16.16c1.848 0 1.848.692.924 1.847-.923 1.27-2.424 3.232-3.347 4.501-.462.578-1.27 1.732 1.5 1.732H76.43zM64.655 9.185H29.333L35.797.413h37.4c9.465 0 11.89 7.503 9.235 11.081-1.963 2.655-4.271 5.772-4.271 5.772H63.73c-2.77 0-1.962-1.155-1.5-1.732.808-1.27 2.309-3.347 3.232-4.502.808-1.154.808-1.847-.808-1.847z"/></g></g></svg>