<svg xmlns="http://www.w3.org/2000/svg" width="177" height="75" viewBox="0 0 177 75"><g><g opacity="1"><g><path fill="#fff" d="M127.458 71.71h-7.482V35.565c3.044-1.268 7.482-2.283 12.048-2.283 9.004 0 15.092 5.073 15.092 13.57 0 9.385-5.707 14.585-15.346 14.585h-.38v-6.34c4.566-.128 8.117-2.664 8.117-8.118 0-4.692-3.171-7.229-7.737-7.229-1.522 0-3.17.127-4.438.635zm41.345-31.325c-1.142-.508-2.664-.888-4.439-.888-4.566 0-7.483 2.79-7.483 7.482 0 5.073 3.298 7.99 8.498 7.99.887 0 2.282 0 3.55-.253V40.385zm7.482 19.657c-3.297.888-7.482 1.268-11.287 1.268-9.385 0-15.726-4.946-15.726-13.95 0-8.624 5.834-14.204 14.331-14.204 2.03 0 3.932.253 5.2.887V21.615h7.482zm-67.977-19.657c-1.141-.508-2.79-.888-4.566-.888-4.438 0-7.482 2.79-7.482 7.482 0 5.073 3.17 7.99 8.497 7.99.888 0 2.41 0 3.551-.253zm7.356 19.657c-3.298.888-7.483 1.268-11.16 1.268-9.512 0-15.727-4.946-15.727-13.95 0-8.624 5.834-14.204 14.331-14.204 1.903 0 3.932.253 5.2.887V21.615h7.356v38.427z"/></g><g/><g><path fill="#fff" d="M61.51 15.527l1.268 1.395.635-.38z"/></g><g><path fill="#fff" d="M59.608 14.64l2.41 2.79.887-.508-.888-1.014c-.126-.127-2.41-1.269-2.41-1.269z"/></g><g><path fill="#fff" d="M57.705 13.625l3.552 4.058.887-.507-2.029-2.41z"/></g><g><path fill="#fff" d="M64.934 22.249l-.507.253.507.635zM55.93 12.61l4.692 5.454.888-.508-3.297-3.804z"/></g><g><path fill="#fff" d="M64.68 22.376l-.887.507 1.141 1.395v-1.395zm-10.526-10.78l5.834 6.848.888-.507-4.439-5.2z"/></g><g><path fill="#fff" d="M64.047 22.756l-.888.507 1.775 2.156v-1.395zM52.252 10.581l7.102 8.244.888-.508-5.707-6.468z"/></g><g><path fill="#fff" d="M63.286 23.263l-.888.508 2.536 2.917v-1.395zM50.35 9.693zm8.243 9.639l.888-.507-6.848-7.863c0-.127-2.277-1.265-2.283-1.269z"/></g><g><path fill="#fff" d="M62.652 23.644l-.888.507 3.17 3.678v-1.395zM48.574 8.679l9.385 10.907.888-.508-7.99-9.258z"/></g><g><path fill="#fff" d="M61.89 24.024l-.76.508 3.931 4.438v-1.395zM46.673 7.664zm10.653 12.302l.888-.507L49.08 8.806c-.126.126-2.399-1.136-2.41-1.142z"/></g><g><path fill="#fff" d="M61.257 24.405l-.888.507 4.565 5.327v-1.395c0-.127-3.677-4.44-3.677-4.44zM44.77 6.65l11.794 13.823.888-.507-10.4-12.048z"/></g><g><path fill="#fff" d="M60.622 24.785l-.887.508 5.2 6.087v-1.395zM42.867 5.635L55.93 20.727l.888-.507L45.277 6.903z"/></g><g><path fill="#fff" d="M59.988 25.166l-.887.507 5.833 6.975v-1.522c0-.126-4.946-5.96-4.946-5.96zM41.092 4.747l14.204 16.487.888-.507L43.5 6.015z"/></g><g><path fill="#fff" d="M59.227 25.546l-.887.507 6.594 7.737v-1.395c0-.127-5.707-6.849-5.707-6.849zM39.317 3.733l15.345 17.882.887-.508L41.6 5.001c0-.127-2.283-1.268-2.283-1.268z"/></g><g><path fill="#fff" d="M58.593 25.927l-.888.507 7.23 8.497V33.41zM37.413 2.59l16.488 19.404.888-.507L39.697 3.986z"/></g><g><path fill="#fff" d="M57.96 26.307l-.889.507 7.863 9.259V34.55l-6.975-8.244zM35.51 1.703l17.756 20.673.887-.508L37.921 2.972z"/></g><g><path fill="#fff" d="M57.198 26.688l-.888.507 8.624 10.019v-1.395zm-23.462-26zM52.633 22.63l.887-.507L36.146 1.83 33.736.69z"/></g><g><path fill="#fff" d="M56.564 27.068l-.888.507 9.258 10.78V36.96c0-.127-8.37-9.892-8.37-9.892zM32.468.435l19.404 22.702.887-.508L34.116.942 33.61.69a2.533 2.533 0 0 0-1.141-.254z"/></g><g><path fill="#fff" d="M55.93 27.449l-.888.507 9.892 11.668v-1.522c0-.127-9.004-10.653-9.004-10.653zM32.468.435c-.254 0-.634.127-.888.127l19.658 22.955.887-.507L32.721.435h-.253z"/></g><g><path fill="#fff" d="M55.296 27.829l-.888.507 10.526 12.302v-1.395zM31.834.562c-.127.127-.38.127-.508.254l-.507.253 19.658 22.955.887-.507C51.491 23.39 31.834.562 31.834.562z"/></g><g><path fill="#fff" d="M54.535 28.21l-.888.507L64.934 41.78v-1.395l-10.4-12.175zM31.073.816l-.888.507 19.657 22.955.888-.507z"/></g><g><path fill="#fff" d="M53.9 28.59l-.887.507 11.921 13.95v-1.394L53.901 28.59zM30.313 1.196l-.761.507 19.657 22.955.888-.507z"/></g><g><path fill="#fff" d="M53.14 28.97l-.888.508 12.682 14.711v-1.395zM29.678 1.577l-.888.507 19.657 22.955.888-.507z"/></g><g><path fill="#fff" d="M52.506 29.35l-.888.508 13.316 15.473v-1.395zM29.043 1.958zm-.887.507L47.813 25.42l.888-.507L29.043 1.957z"/></g><g><path fill="#fff" d="M51.872 29.731l-.888.508 13.95 16.233v-1.395zM28.282 2.338l-.887.507L47.179 25.8l.888-.507z"/></g><g><path fill="#fff" d="M51.237 30.239l-.887.507L64.934 47.74v-1.395zM27.648 2.59zm-.887.507l19.784 22.956.887-.507c-.145-.044-19.774-22.945-19.784-22.956zm20.671 22.449z"/></g><g><path fill="#fff" d="M50.477 30.62l-.888.506L64.934 49.01v-1.65L50.477 30.62zM26.887 2.971L26 3.479 45.784 26.56l.888-.507z"/></g><g><path fill="#fff" d="M49.842 31l-.887.507 15.98 18.643v-1.522zM26.253 3.352l-.887.507L45.15 26.941l.888-.507z"/></g><g><path fill="#fff" d="M49.208 31.38l-.887.507 16.613 19.278v-1.396zM25.62 3.733l-.888.507 19.785 23.082.888-.508z"/></g><g><path fill="#fff" d="M48.447 31.76l-.76.381L65.06 52.433V50.91c-.127 0-16.614-19.15-16.614-19.15zM24.858 4.114zm-.76.507l19.784 23.082.888-.507c-.127 0-19.902-23.07-19.912-23.082z"/></g><g><path fill="#fff" d="M47.813 32.141l-.888.507 18.01 21.053v-1.395c0-.254-17.122-20.165-17.122-20.165zM24.224 4.494L23.336 5l19.785 23.082.888-.508z"/></g><g><path fill="#fff" d="M47.18 32.522l-.889.507 18.643 21.813v-1.395zM23.462 4.874l-.888.507L42.487 28.59l.887-.507c0-.127-19.91-23.209-19.91-23.209z"/></g><g><path fill="#fff" d="M46.545 32.902l-.888.38 19.15 22.321c.127-.253.127-.507.127-.634v-.634zM22.829 5.254l-.888.508L41.98 29.097c.127-.127.127-.253.254-.253l.507-.254c0-.254-19.91-23.336-19.91-23.336z"/></g><g><path fill="#fff" d="M45.784 33.282l-.634.38c-.127 0-.127.128-.254.128L64.427 56.49c.254-.254.38-.634.507-.888zM22.194 5.635l-.887.507 20.419 23.843v-.38c0-.254.127-.508.253-.761z"/></g><g><path fill="#fff" d="M43.628 33.282L63.92 56.998c.253-.126.507-.507.634-.634L45.15 33.663c-.254.127-.761.127-1.015 0zM21.434 6.015l-.888.508 21.18 24.603v-1.521z"/></g><g><path fill="#fff" d="M20.8 6.396l-.888.38 43.374 50.476.634-.254.253-.253-20.038-23.082h-.126l-1.776-1.015-.38-.38c-.127-.254-.127-.38-.254-.507v-.888c.127-.127-20.8-24.477-20.8-24.477z"/></g><g><path fill="#fff" d="M20.039 6.776l-.888.508 43.374 50.475.888-.507z"/></g><g><path fill="#fff" d="M19.405 7.03l-.888.507 43.5 50.603.888-.507z"/></g><g><path fill="#fff" d="M18.77 7.41l-1.014.508 43.5 50.602.888-.507z"/></g><g><path fill="#fff" d="M18.01 7.79l-.888.508 43.5 50.603.888-.508z"/></g><g><path fill="#fff" d="M17.249 8.171l-.761.508 43.5 50.729.888-.507z"/></g><g><path fill="#fff" d="M16.615 8.552l-.888.507 43.5 50.73.888-.508z"/></g><g><path fill="#fff" d="M15.854 8.932l-.888.508 43.5 50.729.888-.507z"/></g><g><path fill="#fff" d="M15.22 9.313l-.888.507 43.5 50.73.888-.508z"/></g><g><path fill="#fff" d="M14.586 9.693l-.888.508 43.5 50.729.888-.507z"/></g><g><path fill="#fff" d="M13.825 10.074l-.888.507 21.18 24.604.633.507c.254.127.635.507.635.888v.127L56.437 61.31l.888-.507z"/></g><g><path fill="#fff" d="M35.385 36.326c0 .127.126.127.126.254v1.268l20.292 23.716.887-.507c-.145-.043-21.305-24.73-21.305-24.73zM56.69 61.057zm-43.5-50.603l-.887.38 19.911 23.21 2.536 1.394z"/></g><g><path fill="#fff" d="M56.184 61.437l-.888.508L35.51 38.863v-1.395zM32.72 34.297l-2.536-1.395-18.516-21.687.76-.38z"/></g><g><path fill="#fff" d="M55.423 61.818l-.888.507L35.51 40.131v-1.522zm-24.73-28.662l-2.41-1.395-17.375-20.165.887-.38z"/></g><g><path fill="#fff" d="M54.789 62.198l-.888.507-18.39-21.433v-1.395zm-26-30.057l-2.409-1.395-16.106-18.77.887-.507z"/></g><g><path fill="#fff" d="M54.154 62.579l-.887.507L35.51 42.414v-1.395zm-27.393-31.58l-2.41-1.394L9.639 12.357l.761-.508z"/></g><g><path fill="#fff" d="M35.511 42.16zm0 0l17.882 20.926-.887.507L35.51 43.682zm-10.78-12.302l-2.41-1.395L8.879 12.737l.888-.507z"/></g><g><path fill="#fff" d="M35.511 43.301S52.76 63.466 52.886 63.466l-.888.508-16.487-19.15zM9.005 12.611zm0 0L22.83 28.716l-2.41-1.395L8.244 13.118z"/></g><g><path fill="#fff" d="M51.998 63.847l-.76.38-15.727-18.39v-1.394zM20.927 27.575L18.39 26.18 7.483 13.498l.888-.507z"/></g><g><path fill="#fff" d="M51.491 64.227l-.888.508-15.092-17.629v-1.522zM29.424 38.863c.127.126.254.38.254.507v.888l-2.03-2.283zM7.737 13.37s10.938 12.802 11.28 13.06l-2.53-1.392-9.638-11.16.888-.508zm11.287 13.063l-.007-.004z"/></g><g><path fill="#fff" d="M50.73 64.608l-.888.507-14.33-16.867v-1.395zM28.156 38.355l1.395 1.65v1.394l-3.932-4.566zm-21.18-24.73s10.02 11.668 9.892 11.668l-2.536-1.395-8.244-9.766.888-.507z"/></g><g><path fill="#fff" d="M35.511 47.994zm0 0c.014.016 14.458 16.994 14.585 16.994l-.888.508-13.697-16.107zm-9.385-10.78l3.552 4.058v1.395l-5.961-6.848zM14.966 24.15l-2.41-1.395-7.102-8.243.888-.508z"/></g><g><path fill="#fff" d="M49.462 65.369l-.888.507-13.063-15.219v-1.395zM24.224 36.073l5.454 6.34v1.396l-7.864-9.132zM12.937 23.01l-2.41-1.395-5.834-6.722.888-.507s7.483 8.624 7.356 8.624z"/></g><g><path fill="#fff" d="M48.828 65.75l-.888.507-12.429-14.458v-1.395s13.19 15.345 13.317 15.345zM22.195 35.057l7.356 8.497v1.395l-9.766-11.414zm-11.287-13.19l-2.41-1.395-4.439-5.2.888-.507s6.087 7.102 5.96 7.102z"/></g><g><path fill="#fff" d="M48.067 66.13l-.888.507L35.511 52.94v-1.395zM20.293 33.79l9.258 11.033v1.395L17.756 32.395zM9.005 20.727l-2.41-1.395-3.17-3.678.888-.507z"/></g><g><path fill="#fff" d="M35.511 52.686zm0 0c.013.015 11.733 13.751 11.92 13.698l-.886.507-11.034-12.81zm11.922 13.697l-.001.001zm-29.17-33.608l11.288 13.19v1.395L15.854 31.38zM7.126 19.53L4.693 18.19l-2.029-2.156.888-.507s2.969 3.5 3.574 4.002zm.104.057c-.011.01-.047-.01-.104-.057z"/></g><g><path fill="#fff" d="M46.799 66.89l-.888.508-10.4-12.175v-1.395S46.671 66.89 46.8 66.89zM16.36 31.508l13.19 15.6v1.521l-15.726-18.39zm-13.443-15.6S5.2 18.572 5.2 18.698l-2.537-1.394-.634-.888.888-.507z"/></g><g><path fill="#fff" d="M46.165 67.271l-.888.507-9.766-11.287V54.97zM14.459 30.62l15.219 17.755v1.395L11.922 29.097s2.41 1.395 2.537 1.522zM3.17 17.43l-1.521-.887.507-.254z"/></g><g><path fill="#fff" d="M35.511 56.237v1.396l9.005 10.526.888-.507zM10.02 27.956L29.678 50.91v-1.395L12.43 29.35z"/></g><g><path fill="#fff" d="M35.511 57.379v1.395l8.37 9.765.889-.507zM7.991 26.814l21.56 25.238V50.53L10.4 28.21z"/></g><g><path fill="#fff" d="M35.511 58.52zm0 1.522l7.737 9.005.887-.508c-.126 0-8.613-10.006-8.624-10.019zM5.961 25.673l23.59 27.52V51.8L8.498 27.069z"/></g><g><path fill="#fff" d="M35.511 59.662v1.395l6.976 8.243.887-.507zM4.06 24.532l25.619 29.803V52.94L6.468 26.054z"/></g><g><path fill="#fff" d="M35.511 60.803v1.395l6.342 7.483.887-.508zM2.03 23.39l27.52 32.087V54.08L4.44 24.912z"/></g><g><path fill="#fff" d="M35.511 61.945v1.521l5.707 6.595.886-.506c-.186.052-6.593-7.61-6.593-7.61zm6.593 7.61l.002-.001zM.128 22.375l29.55 34.37V55.35L2.538 23.77z"/></g><g><path fill="#fff" d="M35.511 63.213v.888c0 .126-.126.253-.126.38l5.2 5.96.885-.505c-.187.052-5.959-6.723-5.959-6.723zm5.959 6.723l.002-.002zM0 22.249v1.014L29.55 57.76v-1.395L.636 22.63z"/></g><g><path fill="#fff" d="M35.385 64.354c-.127.254-.254.634-.508.634l-.127.127 5.073 5.834.888-.507c-.127 0-5.326-6.088-5.326-6.088zM0 23.01v1.522l29.55 34.496v-1.395z"/></g><g><path fill="#fff" d="M34.877 64.988l-.887.508 5.072 5.833.888-.507zM.001 24.278v1.395l29.55 34.496v-1.395z"/></g><g><path fill="#fff" d="M34.37 65.369l-.888.507 5.073 5.834.888-.507zM0 25.419v1.395L29.55 61.31v-1.395z"/></g><g><path fill="#fff" d="M33.61 65.75l-.508.253c-.127.127-.254.127-.508.127l5.2 5.96.888-.507-5.073-5.834zM0 26.56v1.396l29.55 34.623v-1.395z"/></g><g><path fill="#fff" d="M31.326 65.75l5.834 6.72.888-.506-5.073-5.834c-.127 0-.254.127-.254.127h-.127c-.253 0-.38-.127-.507-.127l-.76-.38zM.001 27.701v1.395l29.55 34.496v-1.395z"/></g><g><path fill="#fff" d="M0 28.844v1.522L36.4 72.85l.887-.507-5.453-6.341-1.65-.888c-.253-.127-.506-.507-.506-.888v-.76z"/></g><g><path fill="#fff" d="M0 30.112v1.395l35.765 41.725.888-.507z"/></g><g><path fill="#fff" d="M0 31.253v1.395l35.13 40.964.889-.507z"/></g><g><path fill="#fff" d="M0 32.395v1.522l34.497 40.076.888-.508z"/></g><g><path fill="#fff" d="M0 33.663v1.395l33.736 39.315.888-.507z"/></g><g><path fill="#fff" d="M0 34.804V36.2l32.975 38.555c.254-.127.507-.127.634-.254l.254-.127z"/></g><g><path fill="#fff" d="M0 35.946v1.522l32.087 37.286h.507c.254 0 .508 0 .635-.127z"/></g><g><path fill="#fff" d="M0 37.087v1.395L30.313 73.74l1.014.634c.254.127.634.254.888.254z"/></g><g><path fill="#fff" d="M0 38.229v1.521l28.282 32.975 2.537 1.395z"/></g><g><path fill="#fff" d="M0 39.497v1.395l26.38 30.691 2.537 1.395z"/></g><g><path fill="#fff" d="M0 40.638v1.395l24.35 28.409 2.41 1.395z"/></g><g><path fill="#fff" d="M0 41.78v1.395L22.323 69.3l2.41 1.395z"/></g><g><path fill="#fff" d="M0 42.921v1.395l20.293 23.716 2.536 1.395z"/></g><g><path fill="#fff" d="M0 44.062v1.395l18.39 21.434 2.537 1.395z"/></g><g><path fill="#fff" d="M0 45.204v1.395l16.361 19.15 2.537 1.395C18.898 67.271 0 45.204 0 45.204z"/></g><g><path fill="#fff" d="M0 46.472v1.395l14.332 16.74 2.536 1.396z"/></g><g><path fill="#fff" d="M0 47.613v1.396l12.43 14.457 2.536 1.395z"/></g><g><path fill="#fff" d="M0 48.755v1.522l10.4 12.048 2.41 1.395z"/></g><g><path fill="#fff" d="M0 50.023v1.395l8.371 9.766 2.537 1.395z"/></g><g><path fill="#fff" d="M0 51.165v1.395l6.342 7.482 2.536 1.395z"/></g><g><path fill="#fff" d="M0 52.306v1.522L4.44 58.9l2.536 1.395z"/></g><g><path fill="#fff" d="M0 53.447v1.522l2.41 2.79 2.537 1.395z"/></g><g><path fill="#fff" d="M0 54.589v.38c0 .761.508 1.649 1.142 2.03l1.776 1.014z"/></g><g><path fill="#fff" d="M.508 56.364l.38.38"/></g></g></g></svg>