<svg xmlns="http://www.w3.org/2000/svg" width="16" height="13" viewBox="0 0 16 13"><g><g><g><g><path fill="#ff7127" d="M1.53 4.516c.198.14.793.553 1.786 1.24.992.689 1.753 1.218 2.281 1.59.058.04.182.13.37.266.189.136.346.246.47.33.125.085.276.179.453.283.177.105.344.183.501.235.157.053.302.079.435.079H7.844c.133 0 .279-.026.435-.079a2.63 2.63 0 0 0 .501-.235c.177-.104.328-.198.453-.282.125-.085.281-.195.47-.331l.37-.266 4.075-2.83a4.136 4.136 0 0 0 1.062-1.071c.285-.418.427-.856.427-1.315 0-.383-.138-.711-.413-.984a1.346 1.346 0 0 0-.98-.41H1.426C.98.737.636.889.394 1.19c-.24.302-.361.679-.361 1.132 0 .365.16.762.479 1.188.32.427.659.762 1.019 1.006z"/></g><g><path fill="#ff7127" d="M14.766 5.448a180.957 180.957 0 0 0-4.336 3.004c-.33.244-.6.434-.805.57-.207.137-.48.276-.823.418a2.506 2.506 0 0 1-.958.213h-.018c-.296 0-.615-.07-.957-.213a4.974 4.974 0 0 1-.823-.418 20.647 20.647 0 0 1-.806-.57C4.457 7.877 3.014 6.876.913 5.448a4.613 4.613 0 0 1-.88-.758v6.914c0 .383.136.711.41.984.272.273.6.41.983.41h12.818c.383 0 .711-.137.984-.41.273-.273.41-.6.41-.984V4.69c-.25.279-.54.531-.872.758z"/></g></g></g></g></svg>