<svg xmlns="http://www.w3.org/2000/svg" width="88" height="88" viewBox="0 0 88 88"><g><g><g><path fill="#ff7127" d="M43.822 76.538l1.488 4.406 4.535-.005-3.218 2.436.884 4.73-3.69-2.683-3.7 2.611.896-4.658-3.185-2.451h4.53z"/></g><g><path fill="#ff7127" d="M43.822 0l1.488 4.406 4.535-.004-3.218 2.436.884 4.729-3.69-2.683-3.7 2.611.896-4.657-3.185-2.452h4.53z"/></g><g><path fill="#ff7127" d="M62.258 4.922l1.488 4.406 4.535-.005-3.219 2.436.884 4.73-3.688-2.683-3.702 2.611.896-4.658-3.184-2.45h4.53z"/></g><g><path fill="#ff7127" d="M24.496 4.922l1.488 4.406 4.535-.005-3.218 2.436.884 4.73-3.689-2.683-3.7 2.611.895-4.658-3.184-2.45h4.529z"/></g><g><path fill="#ff7127" d="M62.258 71.367l1.488 4.407 4.535-.005-3.219 2.437.884 4.729-3.688-2.683-3.702 2.611.896-4.657-3.184-2.452h4.53z"/></g><g><path fill="#ff7127" d="M24.496 71.367l1.488 4.407 4.535-.005-3.218 2.437.884 4.729-3.689-2.683-3.7 2.611.895-4.657-3.184-2.452h4.529z"/></g><g><path fill="#ff7127" d="M10.376 19.366l1.488 4.406 4.535-.004-3.218 2.436.884 4.73-3.689-2.684-3.701 2.611.896-4.657-3.184-2.452h4.53z"/></g><g><path fill="#ff7127" d="M76.84 19.366l1.488 4.406 4.535-.004-3.218 2.436.884 4.73-3.69-2.684-3.7 2.611.896-4.657-3.185-2.452h4.53z"/></g><g><path fill="#ff7127" d="M10.376 57.568l1.488 4.406 4.535-.005-3.218 2.436.884 4.73-3.689-2.683-3.701 2.611.896-4.658-3.184-2.451h4.53z"/></g><g><path fill="#ff7127" d="M76.84 57.568l1.488 4.406 4.535-.005-3.218 2.436.884 4.73-3.69-2.683-3.7 2.611.896-4.658-3.185-2.451h4.53z"/></g><g><path fill="#ff7127" d="M5.99 38.323l1.488 4.407 4.535-.005-3.218 2.436.884 4.73-3.69-2.684-3.7 2.611.896-4.657L0 42.71h4.53z"/></g><g><path fill="#ff7127" d="M81.703 38.323l1.488 4.407 4.535-.005-3.218 2.436.884 4.73-3.69-2.684-3.7 2.611.896-4.657-3.185-2.451h4.53z"/></g></g></g></svg>