<svg xmlns="http://www.w3.org/2000/svg" width="205" height="64" viewBox="0 0 205 64"><g><g opacity="1"><g><g opacity="1"><path fill="#fff" d="M25.48 42.54H13.396c-1.19 0-2.128.439-3.005 1.252-.814.814-1.252 1.816-1.252 3.005V58.88c0 1.19.438 2.128 1.252 3.005.814.814 1.816 1.252 3.005 1.252H25.48c1.19 0 2.129-.438 3.005-1.252.814-.814 1.252-1.816 1.252-3.005v-7.763h-8.952v4.445h4.445v3.068H13.647V46.984H25.23v1.69h4.507v-1.94c0-1.19-.438-2.129-1.252-3.005-.813-.751-1.815-1.19-3.005-1.19z"/></g></g><g><g opacity="1"><path fill="#fff" d="M35.496 47.736c-.814.814-1.252 1.816-1.252 2.88v12.396h4.382V50.804h8.952v-4.382h-9.14c-1.127.125-2.128.5-2.942 1.314z"/></g></g><g><g opacity="1"><path fill="#fff" d="M55.216 58.692v-2.254h8.076v2.254zM50.77 46.547v4.382h12.396v1.69H50.77v6.323c0 1.127.376 2.066 1.19 2.88.813.814 1.752 1.252 2.942 1.252h12.646V50.68c0-1.127-.376-2.066-1.19-2.88-.814-.876-1.753-1.252-2.942-1.252z"/></g></g><g><g opacity="1"><path fill="#fff" d="M84.389 46.547H71.743v16.527h4.382V50.866h8.014v12.208h4.382V50.68c0-1.127-.376-2.066-1.19-2.88-.814-.876-1.815-1.252-2.942-1.252z"/></g></g><g><g opacity="1"><path fill="#fff" d="M104.672 51.868v6.887h-8.075v-7.826h8.013v.94zm0-5.321h-8.326c-1.127 0-2.128.438-2.942 1.252a3.975 3.975 0 0 0-1.19 2.88v8.263c0 1.127.376 2.066 1.19 2.88.814.814 1.753 1.252 2.942 1.252h12.646V41.1h-4.382v5.447z"/></g></g><g><g opacity="1"><path fill="#fff" d="M113.625 45.483V41.1h4.382v4.383z"/></g></g><g><g opacity="1"><path fill="#fff" d="M113.625 63.074V46.547h4.382v16.527z"/></g></g><g><g opacity="1"><path fill="#fff" d="M122.952 45.608h8.765v17.466h3.067V45.608h8.765V42.54h-20.597z"/></g></g><g><g opacity="1"><path fill="#fff" d="M150.122 53.496v-2.817c0-.438.063-.689.188-.814s.438-.188.814-.188h8.576c.439 0 .69.063.814.188.126.125.188.438.188.814v2.817zm10.017-6.95h-9.39c-1.002 0-1.879.377-2.63 1.065-.751.751-1.064 1.628-1.064 2.63v9.14c0 1.001.375 1.878 1.064 2.629.751.751 1.628 1.064 2.63 1.064h13.146v-3.067h-12.709c-.438 0-.688-.063-.813-.188-.126-.125-.188-.438-.188-.814v-2.567h13.773v-6.135c0-1.002-.376-1.878-1.065-2.63-.814-.75-1.69-1.126-2.754-1.126z"/></g></g><g><g opacity="1"><path fill="#fff" d="M175.163 53.245h-3.693V41.1h-3.068v21.974h3.068v-6.698h3.693l6.198 6.698h3.569v-.563l-7.012-7.7 7.012-7.7v-.564h-3.569z"/></g></g><g><g opacity="1"><path fill="#fff" d="M192.442 60.007c-.438 0-.689-.063-.814-.188s-.188-.438-.188-.814v-2.817h10.643v3.819zm11.581-12.396c-.75-.751-1.627-1.064-2.629-1.064h-13.147v3.067h12.709c.438 0 .689.063.814.188.125.126.187.439.187.814v2.567h-13.71v6.135c0 1.002.376 1.878 1.065 2.63.75.75 1.627 1.064 2.629 1.064h13.147V50.178c0-.94-.313-1.816-1.065-2.567z"/></g></g><g><g opacity="1"><path fill="#ff7127" d="M40.129 25.825c.125-2.629 0-2.942-.313-5.571-6.887-.313-15.714-.313-21.974.062-.564 5.384-.94 8.139-.501 12.333 4.382-.125 5.321-.188 9.766-1.252-3.568.814-7.7.125-8.64-.063-1-.187.627-9.89.627-9.89l11.268-.564c2.692-.126 7.262-.126 8.765.062.188 2.692.125 2.755.125 4.82 0 2.567-3.38 5.385-7.512 5.51 4.507.062 8.138-1.44 8.389-5.447z"/></g></g><g><g opacity="1"><path fill="#ff7127" d="M8.577 19.94l.125-3.13c.188-3.63 2.128-6.135 6.698-8.075C25.73 4.415 37.624 3.539 44.198 2.6c-5.885.187-22.788 2.692-28.985 3.756-4.57.751-8.765 2.066-11.019 4.945-1.69 2.317-2.817 6.386-3.443 9.579l.564.187c1.377-1.064 5.384-1.752 7.262-1.126z"/></g></g><g><g opacity="1"><path fill="#ff7127" d="M2.692 61.822L1.002 46.11"/></g></g><g><g opacity="1"><path fill="#ff7127" d="M1.002 46.046c.375-4.445 1.252-8.076 2.692-8.514 1.815-.814 4.257-2.066 5.196-3.506C6.198 36.092 1.94 36.97 0 36.97z"/></g></g><g><g opacity="1"><path fill="#ff7127" d="M57.845 4.29L206.34 1.348 53.776-.03l3.13 38.126z"/></g></g><g><g opacity="1"><path fill="#ff7127" d="M62.165 23.07l98.788-3.067-98.913.313z"/></g></g><g><g opacity="1"><path fill="#ff7127" d="M10.705 32.65c.063-2.38.564-7.012.751-9.391-3.505.313-8.514 1.878-10.141 2.754 1.69-.751 7.575-1.815 9.39-1.753.188 2.129-.25 6.135 0 8.39z"/></g></g><g><g opacity="1"><path fill="#ff7127" d="M16.34 16.748h.5c4.508-.063 9.015-.063 13.585-.063l13.522-.062.877 21.473h.626l.062-22.35v-.438h-.438c-4.758.125-9.64.313-14.461.626z"/></g></g></g></g></svg>