<svg xmlns="http://www.w3.org/2000/svg" width="278" height="86" viewBox="0 0 278 86"><g><g><g><g><path fill="#fff" d="M34.464 57.552H18.121c-1.609 0-2.879.593-4.064 1.693-1.101 1.101-1.694 2.456-1.694 4.065v16.343c0 1.609.593 2.879 1.694 4.065 1.1 1.1 2.455 1.693 4.064 1.693h16.343c1.61 0 2.88-.593 4.065-1.693 1.1-1.101 1.693-2.456 1.693-4.065v-10.5H28.113v6.012h6.013v4.15H18.46V63.563h15.665v2.286h6.097v-2.625c0-1.609-.592-2.879-1.693-4.064-1.1-1.016-2.456-1.61-4.065-1.61z"/></g></g><g><g><path fill="#fff" d="M48.013 64.58c-1.1 1.101-1.694 2.456-1.694 3.895v16.767h5.928V68.73h12.109v-5.928H51.993c-1.524.17-2.88.677-3.98 1.778z"/></g></g><g><g><path fill="#fff" d="M85.526 79.399h-10.84v-3.048H85.61v3.048zm.254-16.428H68.675V68.9H85.44v2.286H68.675v8.553c0 1.524.508 2.794 1.609 3.895 1.1 1.1 2.37 1.693 3.98 1.693h17.105V68.56c0-1.524-.509-2.794-1.61-3.895-1.1-1.186-2.37-1.694-3.98-1.694z"/></g></g><g><g><path fill="#fff" d="M114.147 62.971H97.042v22.355h5.928V68.814h10.838v16.512h5.928V68.56c0-1.524-.508-2.794-1.609-3.895-1.1-1.186-2.456-1.694-3.98-1.694z"/></g></g><g><g><path fill="#fff" d="M141.583 70.169v9.315H130.66V68.899h10.838v1.27zm-11.262-7.198c-1.524 0-2.88.593-3.98 1.694-1.1 1.1-1.609 2.455-1.609 3.895v11.178c0 1.524.508 2.794 1.609 3.895 1.1 1.1 2.371 1.693 3.98 1.693h17.105V55.604h-5.928v7.367z"/></g></g><g><g><path fill="#fff" d="M153.692 61.532v-5.928h5.928v5.928z"/></g></g><g><g><path fill="#fff" d="M153.692 85.326V62.971h5.928v22.355z"/></g></g><g><g><path fill="#fff" d="M166.31 61.701h11.854v23.625h4.15V61.701h11.855v-4.15h-27.86z"/></g></g><g><g><path fill="#fff" d="M203.06 72.37v-3.81c0-.593.085-.931.254-1.1.17-.17.593-.255 1.101-.255h11.601c.593 0 .932.085 1.1.254.17.17.255.593.255 1.101v3.81zm13.549-9.399h-12.702c-1.355 0-2.54.508-3.557 1.44-1.016 1.016-1.44 2.201-1.44 3.556V80.33c0 1.355.509 2.54 1.44 3.557 1.017 1.016 2.202 1.44 3.557 1.44h17.783v-4.15H204.5c-.593 0-.932-.084-1.101-.254-.17-.17-.254-.593-.254-1.1V76.35h18.63v-8.299c0-1.355-.509-2.54-1.44-3.557-1.101-1.016-2.287-1.524-3.726-1.524z"/></g></g><g><g><path fill="#fff" d="M236.932 72.032h-4.996V55.604h-4.15v29.723h4.15v-9.061h4.996l8.383 9.06h4.827v-.762l-9.484-10.415 9.484-10.416v-.762h-4.827z"/></g></g><g><g><path fill="#fff" d="M273.259 81.177h-12.956c-.593 0-.931-.084-1.1-.254-.17-.17-.255-.593-.255-1.1v-3.811h14.396v5.165zm2.71-16.766c-1.017-1.016-2.202-1.44-3.557-1.44H254.63v4.15h17.19c.592 0 .93.084 1.1.254.17.169.254.592.254 1.1v3.472H254.63v8.299c0 1.355.508 2.54 1.44 3.556 1.015 1.016 2.2 1.44 3.556 1.44h17.782v-17.36c0-1.27-.423-2.455-1.44-3.471z"/></g></g><g><g><path fill="#ff7127" d="M54.28 34.943c.169-3.557 0-3.98-.424-7.537-9.315-.423-21.255-.423-29.723.085-.762 7.282-1.27 11.008-.677 16.682 5.928-.17 7.198-.255 13.21-1.694-4.827 1.1-10.416.17-11.686-.085-1.355-.254.847-13.379.847-13.379l15.242-.762c3.641-.17 9.823-.17 11.855.085.254 3.64.17 3.725.17 6.52 0 3.472-4.573 7.282-10.162 7.452 6.097.084 11.008-1.948 11.347-7.367z"/></g></g><g><g><path fill="#ff7127" d="M11.601 26.983l.17-4.234c.253-4.912 2.878-8.299 9.06-10.924 13.972-5.843 30.061-7.028 38.952-8.298-7.96.254-30.823 3.64-39.206 5.08-6.182 1.017-11.855 2.795-14.904 6.69-2.286 3.133-3.81 8.637-4.657 12.956l.762.254c1.863-1.44 7.283-2.371 9.823-1.524z"/></g></g><g><g><path fill="#ff7127" d="M3.641 83.633L1.355 62.378"/></g></g><g><g><path fill="#ff7127" d="M1.355 62.294c.508-6.012 1.693-10.924 3.641-11.517 2.456-1.1 5.758-2.794 7.028-4.742-3.64 2.795-9.399 3.98-12.024 3.98z"/></g></g><g><g><path fill="#ff7127" d="M78.243 5.813l200.859-3.98L72.739-.03l4.234 51.57z"/></g></g><g><g><path fill="#ff7127" d="M84.086 31.217l133.624-4.15-133.793.424z"/></g></g><g><g><path fill="#ff7127" d="M14.48 44.173c.085-3.218.762-9.485 1.016-12.702-4.742.423-11.516 2.54-13.718 3.726 2.287-1.017 10.246-2.456 12.702-2.371.254 2.879-.339 8.298 0 11.347z"/></g></g><g><g><path fill="#ff7127" d="M22.101 22.664h.678c6.096-.085 12.193-.085 18.375-.085l18.29-.084L60.63 51.54h.847l.085-30.23v-.594h-.593c-6.436.17-13.04.424-19.561.847z"/></g></g></g></g></svg>