<svg xmlns="http://www.w3.org/2000/svg" width="63" height="77" viewBox="0 0 63 77"><g><g><g><g><path fill="#ff7127" d="M49.254 67.25a1.129 1.129 0 0 0-.77.444l-4.47 5.975-7.82-13.544a42.87 42.87 0 0 0 1.641-1.594c1.077-1.084 2.1-2.114 3.12-2.67.019.047.04.093.066.138l4.905 8.496a1.129 1.129 0 1 0 1.956-1.13l-4.687-8.117c.906-.097 1.903-.1 2.882-.102 1.346-.003 2.716-.006 3.973-.235l6.613 11.455-7.409.883zM26.256 56.94c-1.323-1.332-2.69-2.71-4.262-3.361-1.647-.683-3.645-.688-5.578-.692-2.33-.006-4.531-.01-5.668-1.147-1.136-1.136-1.141-3.338-1.146-5.668-.005-1.933-.01-3.93-.693-5.578-.651-1.571-2.028-2.939-3.36-4.262-1.618-1.606-3.29-3.268-3.29-4.988 0-1.72 1.672-3.381 3.29-4.988 1.332-1.323 2.71-2.69 3.36-4.262.684-1.647.688-3.645.693-5.578.005-2.33.01-4.531 1.147-5.668 1.136-1.136 3.337-1.141 5.667-1.147 1.933-.004 3.931-.009 5.579-.692 1.57-.651 2.938-2.028 4.261-3.36 1.607-1.618 3.268-3.29 4.988-3.29 1.72 0 3.382 1.672 4.988 3.29 1.323 1.332 2.69 2.709 4.262 3.36 1.647.684 3.646.688 5.578.693 2.33.005 4.532.01 5.668 1.147 1.137 1.136 1.142 3.337 1.147 5.668.004 1.932.009 3.93.692 5.578.651 1.57 2.029 2.939 3.36 4.261 1.618 1.607 3.29 3.268 3.29 4.988 0 1.72-1.672 3.382-3.29 4.989-1.332 1.322-2.709 2.69-3.36 4.261-.683 1.648-.688 3.646-.692 5.578-.006 2.33-.01 4.532-1.147 5.668-1.137 1.137-3.338 1.142-5.668 1.147-1.933.004-3.931.01-5.578.692-1.572.652-2.94 2.029-4.262 3.36-1.606 1.618-3.267 3.29-4.988 3.29-1.72 0-3.381-1.672-4.988-3.29zm-7.782 16.728l-4.47-5.974a1.13 1.13 0 0 0-.77-.445l-7.409-.883L12.44 54.91c1.257.228 2.626.231 3.972.234 1.074.003 2.17.006 3.144.133l-4.669 8.087a1.13 1.13 0 0 0 1.956 1.13l4.905-8.496.006-.011c.947.577 1.9 1.537 2.9 2.543.538.541 1.08 1.087 1.64 1.594l-7.819 13.543zM52.23 54.171c.4-.223.77-.497 1.107-.834 1.796-1.795 1.802-4.573 1.808-7.26.004-1.712.009-3.483.52-4.718.478-1.153 1.638-2.305 2.866-3.524 1.946-1.932 3.957-3.93 3.957-6.59 0-2.661-2.011-4.66-3.957-6.592-1.228-1.22-2.387-2.371-2.866-3.524-.511-1.234-.516-3.005-.52-4.718-.006-2.686-.012-5.464-1.808-7.26-1.795-1.796-4.573-1.802-7.26-1.808-1.712-.004-3.483-.008-4.718-.52-1.153-.478-2.305-1.638-3.524-2.866C35.903 2.012 33.905 0 31.245 0c-2.661 0-4.66 2.012-6.592 3.957-1.22 1.228-2.371 2.388-3.524 2.866-1.234.512-3.005.516-4.718.52-2.686.006-5.464.012-7.26 1.808-1.795 1.796-1.802 4.574-1.808 7.26-.004 1.713-.008 3.484-.52 4.718-.478 1.153-1.638 2.305-2.866 3.524C2.012 26.586 0 28.583 0 31.244c0 2.66 2.012 4.659 3.957 6.591 1.228 1.22 2.388 2.371 2.866 3.524.512 1.235.516 3.006.52 4.718.006 2.687.012 5.464 1.808 7.26.337.337.708.611 1.108.834L3.013 66.72a1.129 1.129 0 0 0 .844 1.686l8.629 1.029 5.206 6.958a1.13 1.13 0 0 0 1.882-.112l8.524-14.764c.956.59 1.988.971 3.146.971s2.19-.38 3.146-.971l8.524 14.764a1.129 1.129 0 0 0 1.883.112l5.205-6.958 8.629-1.03a1.13 1.13 0 0 0 .844-1.685z"/></g><g><path fill="#ff7127" d="M31.244 49.389c-10.005 0-18.144-8.14-18.144-18.145C13.1 21.24 21.24 13.1 31.244 13.1c10.005 0 18.144 8.14 18.144 18.144 0 10.005-8.139 18.145-18.144 18.145zm20.403-18.145c0-11.25-9.153-20.403-20.403-20.403-11.25 0-20.403 9.153-20.403 20.403 0 11.25 9.153 20.403 20.403 20.403 11.25 0 20.403-9.153 20.403-20.403z"/></g><g><path fill="#ff7127" d="M31.244 15.66c-8.593 0-15.584 6.991-15.584 15.584 0 3.289 1.012 6.434 2.927 9.095a1.13 1.13 0 0 0 1.833-1.32 13.23 13.23 0 0 1-2.502-7.775c0-7.347 5.978-13.325 13.326-13.325 7.348 0 13.326 5.978 13.326 13.325 0 7.348-5.978 13.326-13.326 13.326-2.343 0-4.647-.616-6.663-1.782a1.13 1.13 0 0 0-1.13 1.955 15.58 15.58 0 0 0 7.793 2.086c8.593 0 15.585-6.991 15.585-15.584 0-8.594-6.991-15.585-15.585-15.585z"/></g><g><path fill="#ff7127" d="M39.752 31.244a1.13 1.13 0 0 0 2.258 0c0-5.936-4.83-10.766-10.766-10.766a1.13 1.13 0 0 0 0 2.259c4.691 0 8.508 3.816 8.508 8.507z"/></g></g></g></g></svg>