<svg xmlns="http://www.w3.org/2000/svg" width="15" height="15" viewBox="0 0 15 15"><g><g><g><path fill="#ff7127" d="M14.965 11.62c-.043-.128-.313-.316-.81-.564a24.857 24.857 0 0 0-.575-.32c-.248-.135-.474-.26-.676-.373a22.595 22.595 0 0 1-.57-.33 14.011 14.011 0 0 0-.266-.186 2.995 2.995 0 0 0-.379-.23.697.697 0 0 0-.303-.074c-.142 0-.32.101-.533.304a5.185 5.185 0 0 0-.585.66 6.422 6.422 0 0 1-.565.66c-.198.203-.362.304-.49.304a.724.724 0 0 1-.24-.053 2.485 2.485 0 0 1-.218-.09 3.98 3.98 0 0 1-.255-.15 6.543 6.543 0 0 0-.203-.122c-.973-.54-1.807-1.158-2.503-1.853-.696-.697-1.313-1.53-1.853-2.504a6.167 6.167 0 0 0-.123-.202 3.844 3.844 0 0 1-.149-.256 2.306 2.306 0 0 1-.09-.218.72.72 0 0 1-.053-.24c0-.127.1-.29.303-.49.202-.198.423-.387.66-.564.238-.177.458-.373.66-.586.203-.213.304-.39.304-.532 0-.1-.025-.2-.074-.304a2.96 2.96 0 0 0-.23-.378c-.102-.15-.164-.238-.186-.266a23.39 23.39 0 0 1-.33-.57 53.668 53.668 0 0 1-.373-.676c-.135-.249-.241-.44-.32-.576-.248-.497-.436-.767-.564-.809A.597.597 0 0 0 3.153 0c-.192 0-.442.035-.751.107a4.218 4.218 0 0 0-.73.223C1.317.48.941.912.543 1.63.181 2.296 0 2.956 0 3.61c0 .192.012.379.037.56.025.18.07.385.133.612.064.227.116.396.155.506.039.11.112.307.218.591s.17.458.192.522c.248.696.543 1.317.884 1.864.56.909 1.326 1.848 2.295 2.818.97.969 1.908 1.734 2.817 2.295.547.34 1.168.635 1.864.884.064.021.238.085.522.192.284.106.481.18.591.218.11.04.279.09.506.155.228.064.432.108.613.133.18.025.367.037.559.037.653 0 1.314-.18 1.981-.543.717-.397 1.15-.774 1.3-1.13.078-.177.152-.42.223-.729.071-.309.106-.559.106-.75 0-.1-.01-.175-.032-.225z"/></g></g></g></svg>