<svg xmlns="http://www.w3.org/2000/svg" width="67" height="42" viewBox="0 0 67 42"><g><g><g><g><g><path fill="#ff7127" d="M64.276 26.597h-1.178c-.649 0-1.177-.528-1.177-1.178v-1.177h2.355v2.355zm-8.935 13.298a4.507 4.507 0 0 1-4.502-4.502 4.507 4.507 0 0 1 4.502-4.502 4.507 4.507 0 0 1 4.502 4.502 4.507 4.507 0 0 1-4.502 4.502zm-36.57 0a4.507 4.507 0 0 1-4.503-4.502 4.507 4.507 0 0 1 4.502-4.502 4.507 4.507 0 0 1 4.502 4.502 4.507 4.507 0 0 1-4.502 4.502zm29.852-28.951h9.231l1.697 6.787H48.623zm0-4.433h7.826a2.288 2.288 0 0 1 2.286 2.286v.069H48.623zm13.086 11.283L59.99 10.92c.47-.1.823-.517.823-1.016V8.797a4.369 4.369 0 0 0-4.364-4.364h-7.826V2.147A2.15 2.15 0 0 0 46.475 0H6.58a2.15 2.15 0 0 0-2.147 2.147v18.84a1.039 1.039 0 0 0 2.078 0V2.147a.07.07 0 0 1 .069-.069h39.895a.07.07 0 0 1 .07.07v18.839a1.039 1.039 0 0 0 2.077 0v-1.178h12.262a3.4 3.4 0 0 1 3.228 2.355h-3.23c-.574 0-1.04.465-1.04 1.04v2.216a3.259 3.259 0 0 0 3.256 3.255h1.178v4.571h-2.717c-.892-2.577-3.342-4.433-6.218-4.433-2.877 0-5.326 1.856-6.219 4.433h-.5V25.42a1.039 1.039 0 0 0-2.078 0v7.827H24.99c-.893-2.577-3.342-4.433-6.219-4.433-2.876 0-5.326 1.856-6.218 4.433H6.58a.07.07 0 0 1-.07-.07v-2.285h4.503a1.039 1.039 0 0 0 0-2.078H1.039a1.039 1.039 0 0 0 0 2.078h3.394v2.286a2.15 2.15 0 0 0 2.147 2.147h5.612l-.002.07a6.587 6.587 0 0 0 6.58 6.579 6.587 6.587 0 0 0 6.58-6.58l-.002-.07h23.415l-.002.07a6.587 6.587 0 0 0 6.58 6.58 6.587 6.587 0 0 0 6.58-6.58l-.002-.07h3.396c.573 0 1.039-.464 1.039-1.038V23.203a5.48 5.48 0 0 0-4.645-5.41z"/></g></g></g><g><g><g><path fill="#ff7127" d="M18.77 33.246a2.15 2.15 0 0 0-2.147 2.147 2.15 2.15 0 0 0 2.147 2.148 2.15 2.15 0 0 0 2.147-2.148 2.15 2.15 0 0 0-2.147-2.147z"/></g></g></g><g><g><g><path fill="#ff7127" d="M55.341 33.246a2.15 2.15 0 0 0-2.147 2.147 2.15 2.15 0 0 0 2.147 2.148 2.15 2.15 0 0 0 2.147-2.148 2.15 2.15 0 0 0-2.147-2.147z"/></g></g></g><g><g><g><path fill="#ff7127" d="M43.15 28.813H27.637a1.039 1.039 0 0 0 0 2.078H43.15a1.039 1.039 0 0 0 0-2.078z"/></g></g></g><g><g><g><path fill="#ff7127" d="M16.554 24.38H3.255a1.039 1.039 0 0 0 0 2.079h13.299a1.039 1.039 0 1 0 0-2.078z"/></g></g></g><g><g><g><path fill="#ff7127" d="M36.128 10.278a1.039 1.039 0 0 0-1.47 0l-9.239 9.24-4.806-4.807a1.039 1.039 0 1 0-1.47 1.47l5.542 5.54a1.035 1.035 0 0 0 1.469 0l9.974-9.974a1.04 1.04 0 0 0 0-1.469z"/></g></g></g></g></g></svg>