<svg xmlns="http://www.w3.org/2000/svg" width="69" height="68" viewBox="0 0 69 68"><g><g><path fill="#ff7127" d="M65.535 44.06l-3.17 8.455a3.476 3.476 0 0 1-4.042 2.162l5.587-14.904a3.482 3.482 0 0 1 1.84 2.845 3.458 3.458 0 0 1-.215 1.442zM36.897 65.99a3.066 3.066 0 0 1-3.062-3.062 3.066 3.066 0 0 1 3.062-3.062 3.066 3.066 0 0 1 3.063 3.062 3.066 3.066 0 0 1-3.063 3.063zM4.888 39.775l5.587 14.903a3.445 3.445 0 0 1-2.229-.22 3.448 3.448 0 0 1-1.813-1.942l-3.17-8.455a3.477 3.477 0 0 1 1.625-4.286zm3.835-6.738l3.42-1.281c.45-.17.913-.25 1.369-.25a3.92 3.92 0 0 1 3.667 2.54l6.324 16.87c.367.978.331 2.04-.101 2.992a3.888 3.888 0 0 1-2.189 2.044l-3.419 1.282a3.887 3.887 0 0 1-2.993-.102 3.888 3.888 0 0 1-2.043-2.188l-6.325-16.87a3.917 3.917 0 0 1 2.29-5.037zM68.798 34.4c0-9.188-3.578-17.827-10.075-24.324S43.587 0 34.399 0C25.21 0 16.572 3.578 10.075 10.075S0 25.211 0 34.4c0 2.799.337 5.581 1.002 8.272a5.5 5.5 0 0 0 .347 2.107l3.17 8.455a5.479 5.479 0 0 0 2.882 3.084 5.498 5.498 0 0 0 2.28.498c.536 0 1.074-.081 1.598-.24a5.914 5.914 0 0 0 2.677 2.416 5.94 5.94 0 0 0 2.462.537c.705 0 1.413-.127 2.093-.382l3.42-1.282a5.962 5.962 0 0 0 3.486-7.667l-6.325-16.87a5.914 5.914 0 0 0-3.111-3.33 5.912 5.912 0 0 0-4.556-.156l-3.42 1.282c-2.752 1.032-4.292 3.897-3.758 6.692a5.481 5.481 0 0 0-1.85 1.36 32.644 32.644 0 0 1-.354-4.776c0-8.465 3.231-16.432 9.106-22.498l.16.2a4.092 4.092 0 0 0 3.171 1.497c.89 0 1.783-.289 2.524-.884a28.037 28.037 0 0 1 3.225-2.237 1.022 1.022 0 1 0-1.043-1.757 30.018 30.018 0 0 0-3.462 2.401c-.857.688-2.128.547-2.834-.315-.09-.11-.18-.224-.269-.336 5.97-5.445 13.644-8.427 21.778-8.427 8.134 0 15.808 2.982 21.778 8.427-.089.113-.177.225-.267.335-.706.863-1.978 1.004-2.835.316A29.926 29.926 0 0 0 34.4 4.556c-4.073 0-8.022.807-11.738 2.398a1.022 1.022 0 0 0 .805 1.878A27.62 27.62 0 0 1 34.399 6.6c6.4 0 12.416 2.114 17.397 6.114.74.596 1.633.884 2.523.884A4.093 4.093 0 0 0 57.49 12.1c.053-.065.105-.133.158-.199 5.875 6.066 9.105 14.033 9.105 22.498 0 1.602-.12 3.197-.352 4.77a5.479 5.479 0 0 0-1.85-1.354 5.964 5.964 0 0 0-3.76-6.692l-3.418-1.282a5.963 5.963 0 0 0-7.668 3.486l-3.4 9.07a1.022 1.022 0 1 0 1.913.718l3.4-9.07a3.917 3.917 0 0 1 5.037-2.29l3.42 1.281a3.885 3.885 0 0 1 2.188 2.045c.432.95.468 2.013.102 2.991v.001l-6.325 16.87a3.917 3.917 0 0 1-5.036 2.29l-3.42-1.282a3.918 3.918 0 0 1-2.29-5.037l1.535-4.093a1.022 1.022 0 0 0-1.913-.717l-1.535 4.093a5.963 5.963 0 0 0 3.486 7.667l3.42 1.282a5.909 5.909 0 0 0 4.179 0l-1.018 2.71a3.16 3.16 0 0 1-3.407 2.006l-8.046-1.204a5.112 5.112 0 0 0-5.099-4.836 5.112 5.112 0 0 0-5.106 5.106 5.112 5.112 0 0 0 5.106 5.106c2.2 0 4.08-1.4 4.797-3.355l8.045 1.204c.254.038.507.057.758.057a5.219 5.219 0 0 0 4.866-3.366l2.24-5.974a5.494 5.494 0 0 0 1.515.215 5.5 5.5 0 0 0 2.28-.498 5.481 5.481 0 0 0 2.881-3.084l3.17-8.456c.26-.692.376-1.413.35-2.13.662-2.682.999-5.456.999-8.248z"/></g></g></svg>