<svg xmlns="http://www.w3.org/2000/svg" width="32" height="32" viewBox="0 0 32 32"><g><g opacity="1"><g><path fill="#FF7127" d="M14.516 12.294h2.938v11.082h-2.938zm-.107-2.746c0-.877.715-1.53 1.576-1.53.877 0 1.592.653 1.592 1.53s-.715 1.538-1.592 1.538c-.861 0-1.576-.661-1.576-1.538z"/></g><g><path fill="#ff7127" d="M31.99 15.993c0 8.837-7.16 15.997-15.997 15.997S-.004 24.83-.004 15.993 7.156-.004 15.993-.004 31.99 7.156 31.99 15.993zM15.993 2.149c-3.7 0-7.176 1.439-9.79 4.053a13.752 13.752 0 0 0-4.054 9.791c0 3.7 1.439 7.176 4.053 9.79a13.752 13.752 0 0 0 9.791 4.054c3.7 0 7.176-1.438 9.79-4.053a13.752 13.752 0 0 0 4.054-9.791c0-3.7-1.438-7.176-4.053-9.79a13.752 13.752 0 0 0-9.79-4.054"/></g></g></g></svg>