<svg xmlns="http://www.w3.org/2000/svg" width="244" height="23" viewBox="0 0 244 23"><g><g opacity="1"><g><path fill="#fd0" d="M181.56 7.012c3.532 0 5.953 2.403 5.953 6.187v9.257h-3.387V13.42c0-1.906-1.27-3.184-3.153-3.184-2.148 0-3.242 1.631-3.242 2.994v9.226h-3.386V7.179h3.386v.93c1.226-.894 2.629-1.097 3.828-1.097zm-76.43 0c3.528 0 5.953 2.403 5.953 6.187v9.257h-3.387V13.42c0-1.906-1.27-3.184-3.153-3.184-2.148 0-3.241 1.631-3.241 2.994v9.226h-3.387V7.179h3.387v.93c1.226-.894 2.628-1.097 3.828-1.097zm36.091 0c3.528 0 5.954 2.403 5.954 6.187v9.257h-3.387V13.42c0-1.906-1.27-3.184-3.153-3.184-2.148 0-3.242 1.631-3.242 2.994v9.226h-3.387V7.179h3.387v.93c1.226-.894 2.629-1.097 3.828-1.097zm-90.52 6.094c2.682.64 5.43 1.751 5.482 4.701.049 2.982-2.831 4.807-5.65 4.807-4.299 0-6.23-2.549-6.23-2.549l2.209-2.06c.432.438 1.808 1.637 3.89 1.637 1.181-.022 2.593-.657 2.575-1.715-.018-1.17-1.372-1.548-2.941-1.923-.512-.124-1.041-.247-1.562-.41-2.258-.71-3.47-2.09-3.501-3.872 0-3.97 3.343-4.543 6.002-4.543L54 7.175v2.818l-3.056.004c-1.773 0-2.796.353-2.774 1.517.018.87 1.058 1.244 2.531 1.592zm29.667.106h-.001a.67.67 0 0 1 0 .005zm-1.407-2.47c-.851-.63-1.68-.749-2.58-.749-1.248 0-2.382.59-3.167 1.504-.626.723-.908 1.715-.908 1.715h8.06c-.15-.981-.621-1.888-1.405-2.47zm-2.28 11.881c-4.454-.013-7.788-3.347-7.797-7.801 0-.984.167-1.971.511-2.893a7.604 7.604 0 0 1 2.668-3.493c1.323-.943 2.946-1.424 4.565-1.424 2.143 0 3.876.745 5.124 2.081.856.922 1.434 2.09 1.769 3.295.3 1.08.33 2.165.33 3.28H72.227l.066.331c.428 2.051 2.183 3.427 4.388 3.431 1.905-.004 3.153-.9 3.81-1.56l2.32 2.16c-1.412 1.61-3.7 2.589-6.13 2.593zm-37.79-9.41a.67.67 0 0 1 0 .004zm-1.406-2.47c-.851-.63-1.68-.75-2.58-.75-1.248 0-2.382.59-3.167 1.504-.626.723-.908 1.715-.908 1.715h8.06c-.15-.981-.622-1.888-1.405-2.47zM35.2 22.623c-4.454-.013-7.788-3.347-7.797-7.801 0-.984.168-1.971.512-2.893a7.604 7.604 0 0 1 2.668-3.493c1.323-.943 2.946-1.424 4.564-1.424 2.144 0 3.877.745 5.125 2.081.855.922 1.433 2.09 1.768 3.295.3 1.08.331 2.165.331 3.28H30.746l.066.331c.428 2.051 2.183 3.427 4.388 3.431 1.905-.004 3.153-.9 3.81-1.56l2.32 2.16c-1.407 1.61-3.7 2.589-6.13 2.593zM27.818 2.134l-5.446 20.322h-3.564L13.913 7.382l-4.9 15.074H5.45L0 2.13h3.563l3.876 14.46 4.649-14.456h3.642l4.648 14.456L24.25 2.134zm65.06 4.909c1.02-.133 2.038.19 2.042.19v3.263c-.502-.26-1.221-.34-1.71-.34-.45 0-.975.08-1.526.318-.82.352-1.38 1.085-1.672 1.781-.119.291-.172.6-.172.913v9.288h-3.387V7.179h3.387v1.103c.953-.763 2.02-1.107 3.039-1.24zM151.859 0a2.571 2.571 0 0 1 1.932 4.264h-3.864A2.57 2.57 0 0 1 151.858 0zm-24.427 14.416V2.13h3.577v12.172c0 5.053-3.326 8.321-8.468 8.321-5.142 0-8.467-3.268-8.467-8.348V2.13h3.577v12.26s-.314 4.785 4.89 4.785 4.895-4.759 4.895-4.759zm40.938.402c0-2.686-1.852-4.635-4.406-4.635-2.57 0-4.436 1.949-4.436 4.635 0 2.685 1.865 4.634 4.436 4.634 2.554 0 4.406-1.949 4.406-4.634zm3.374 0c0 4.45-3.343 7.805-7.78 7.805-4.454 0-7.81-3.356-7.81-7.805 0-4.45 3.356-7.806 7.81-7.806 4.437 0 7.78 3.356 7.78 7.806zM153.55 7.179v15.277h-3.386V7.179zM66.798 18.981l.75 2.791-.358.18c-.837.402-1.653.671-2.91.671-2.748 0-4.45-1.693-4.45-4.419l-.004-8.202h-2.823V7.184h2.823V3.14l3.387-.909v4.953h3.576v2.818h-3.576l.004 7.77c0 .992.662 1.676 1.685 1.738.569.035 1.133-.133 1.631-.388z"/></g><g><g opacity="1"><path fill="#fd0" d="M239.048 2.134v12.547c0 .017.088 1.72-1.01 2.888-.714.759-1.786 1.143-3.188 1.143-1.403 0-2.474-.384-3.189-1.143-1.098-1.168-1.01-2.87-1.01-2.888V2.134h-1.803l-2.576 9.464v2.942c0 2.505.812 4.626 2.346 6.138 1.535 1.509 3.687 2.307 6.232 2.307 2.54 0 4.696-.798 6.231-2.307 1.535-1.508 2.346-3.633 2.346-6.138V2.134zm-17.076 0l-3.342 12.957-4.066-12.957h-4.022l-3.996 12.86-3.417-12.86h-4.349l5.583 20.322h3.987l4.19-13.473 4.189 13.473h4.013l5.53-20.322z"/></g><g opacity="1"><path fill="#fff" d="M200.425 22.456l-5.578-20.322h1.424l5.583 20.322zm-3.938 0l-5.583-20.322h1.425l5.587 20.322z"/></g></g></g></g></svg>